ffmpeg version N-82167-g5e96558 Copyright (c) 2000-2016 the FFmpeg developers
  built with gcc 5.4.0 (Ubuntu 5.4.0-6ubuntu1~16.04.2) 20160609
  configuration: --prefix=/root/ffmpeg_build --pkg-config-flags=--static --extra-cflags=-I/root/ffmpeg_build/include --extra-ldflags=-L/root/ffmpeg_build/lib --bindir=/root/bin --enable-gpl --enable-libass --enable-libfdk-aac --enable-libfreetype --enable-libmp3lame --enable-libopus --enable-libtheora --enable-libvorbis --enable-libx264 --enable-libx265 --enable-nonfree
  libavutil      55. 35.100 / 55. 35.100
  libavcodec     57. 65.100 / 57. 65.100
  libavformat    57. 57.100 / 57. 57.100
  libavdevice    57.  2.100 / 57.  2.100
  libavfilter     6. 66.100 /  6. 66.100
  libswscale      4.  3.100 /  4.  3.100
  libswresample   2.  4.100 /  2.  4.100
  libpostproc    54.  2.100 / 54.  2.100
Input #0, matroska,webm, from '/media/yubikiri/bot/queue/3AnimePahe_Detective_Conan_-_051_720p_Fansub.mkv':
  Metadata:
    title           : 3|Text||0|0
    LANGUAGE        : Undefined
    ENCODER         : Lavf57.57.100
  Duration: 00:24:17.21, start: 0.000000, bitrate: 984 kb/s
    Stream #0:0: Video: mpeg4 (Advanced Simple Profile), yuv420p, 640x480 [SAR 1:1 DAR 4:3], 23.98 fps, 23.98 tbr, 1k tbn, 23.98 tbc (default)
    Metadata:
      DURATION        : 00:24:17.206000000
    Stream #0:1: Audio: mp3, 48000 Hz, stereo, s16p, 128 kb/s (default)
    Metadata:
      DURATION        : 00:24:17.160000000
[libx264 @ 0x410e440] using SAR=1/1
[libx264 @ 0x410e440] using cpu capabilities: MMX2 SSE2Fast SSSE3 SSE4.2 AVX FMA3 AVX2 LZCNT BMI2
[libx264 @ 0x410e440] profile High, level 3.1
[libx264 @ 0x410e440] 264 - core 148 r2643 5c65704 - H.264/MPEG-4 AVC codec - Copyleft 2003-2015 - http://www.videolan.org/x264.html - options: cabac=1 ref=8 deblock=1:1:1 analyse=0x3:0x133 me=umh subme=7 psy=1 psy_rd=0.00:0.00 mixed_ref=1 me_range=8 chroma_me=1 trellis=0 8x8dct=1 cqm=0 deadzone=21,11 fast_pskip=1 chroma_qp_offset=0 threads=8 lookahead_threads=2 sliced_threads=0 nr=0 decimate=1 interlaced=0 bluray_compat=0 constrained_intra=0 bframes=3 b_pyramid=2 b_adapt=2 b_bias=0 direct=1 weightb=1 open_gop=0 weightp=2 keyint=240 keyint_min=24 scenecut=40 intra_refresh=0 rc_lookahead=60 rc=crf mbtree=1 crf=27.0 qcomp=0.60 qpmin=0 qpmax=69 qpstep=4 ip_ratio=1.40 aq=1:1.00
[libfdk_aac @ 0x40a1c60] Note, the VBR setting is unsupported and only works with some parameter combinations
Output #0, mp4, to '/media/yubikiri/bot/queue/3AnimePahe_Detective_Conan_-_051_720p_Fansub.mkv_encoded.mp4':
  Metadata:
    encoder         : Lavf57.57.100
    Stream #0:0: Video: h264 (libx264) ([33][0][0][0] / 0x0021), yuv420p, 640x480 [SAR 1:1 DAR 4:3], q=-1--1, 23.98 fps, 24k tbn, 23.98 tbc (default)
    Metadata:
      encoder         : Lavc57.65.100 libx264
    Side data:
      cpb: bitrate max/min/avg: 0/0/0 buffer size: 0 vbv_delay: -1
    Stream #0:1: Audio: aac (libfdk_aac) (HE-AACv2) ([64][0][0][0] / 0x0040), 48000 Hz, stereo, s16, 48 kb/s (default)
    Metadata:
      encoder         : Lavc57.65.100 libfdk_aac
Stream mapping:
  Stream #0:0 -> #0:0 (mpeg4 (native) -> h264 (libx264))
  Stream #0:1 -> #0:1 (mp3 (native) -> aac (libfdk_aac))
Press [q] to stop, [?] for help
frame=  109 fps=0.0 q=32.0 size=      68kB time=00:00:04.71 bitrate= 118.8kbits/s dup=1 drop=0 speed= 9.1x    frame=  146 fps=140 q=32.0 size=     178kB time=00:00:06.25 bitrate= 232.6kbits/s dup=1 drop=0 speed=6.01x    frame=  182 fps=116 q=32.0 size=     297kB time=00:00:07.74 bitrate= 314.5kbits/s dup=1 drop=0 speed=4.93x    frame=  223 fps=108 q=32.0 size=     440kB time=00:00:09.45 bitrate= 381.0kbits/s dup=1 drop=0 speed=4.56x    frame=  272 fps=106 q=32.0 size=     585kB time=00:00:11.49 bitrate= 416.9kbits/s dup=1 drop=0 speed=4.47x    frame=  308 fps=100 q=32.0 size=     743kB time=00:00:12.99 bitrate= 468.4kbits/s dup=1 drop=0 speed=4.23x    frame=  352 fps= 98 q=32.0 size=     866kB time=00:00:14.82 bitrate= 478.7kbits/s dup=1 drop=0 speed=4.12x    frame=  428 fps=104 q=32.0 size=     997kB time=00:00:17.98 bitrate= 454.1kbits/s dup=1 drop=0 speed=4.38x    frame=  496 fps=108 q=32.0 size=    1136kB time=00:00:20.84 bitrate= 446.6kbits/s dup=1 drop=0 speed=4.52x    frame=  546 fps=107 q=32.0 size=    1257kB time=00:00:22.93 bitrate= 449.0kbits/s dup=1 drop=0 speed=4.48x    frame=  628 fps=112 q=32.0 size=    1386kB time=00:00:26.34 bitrate= 430.9kbits/s dup=1 drop=0 speed=4.69x    frame=  724 fps=118 q=32.0 size=    1514kB time=00:00:30.35 bitrate= 408.6kbits/s dup=1 drop=0 speed=4.96x    frame=  774 fps=116 q=32.0 size=    1659kB time=00:00:32.44 bitrate= 418.8kbits/s dup=1 drop=0 speed=4.88x    frame=  836 fps=117 q=32.0 size=    1828kB time=00:00:35.00 bitrate= 427.9kbits/s dup=1 drop=0 speed=4.89x    frame=  913 fps=119 q=32.0 size=    1963kB time=00:00:38.20 bitrate= 420.9kbits/s dup=1 drop=0 speed=4.99x    frame=  977 fps=120 q=32.0 size=    2096kB time=00:00:40.93 bitrate= 419.4kbits/s dup=1 drop=0 speed=5.01x    frame= 1020 fps=117 q=32.0 size=    2190kB time=00:00:42.68 bitrate= 420.2kbits/s dup=1 drop=0 speed= 4.9x    frame= 1076 fps=117 q=32.0 size=    2339kB time=00:00:45.03 bitrate= 425.4kbits/s dup=1 drop=0 speed=4.89x    frame= 1146 fps=118 q=32.0 size=    2446kB time=00:00:47.93 bitrate= 417.9kbits/s dup=1 drop=0 speed=4.92x    frame= 1215 fps=119 q=32.0 size=    2575kB time=00:00:50.83 bitrate= 414.9kbits/s dup=1 drop=0 speed=4.97x    frame= 1268 fps=118 q=32.0 size=    2682kB time=00:00:53.05 bitrate= 414.1kbits/s dup=1 drop=0 speed=4.93x    frame= 1307 fps=116 q=32.0 size=    2818kB time=00:00:54.67 bitrate= 422.2kbits/s dup=1 drop=0 speed=4.85x    frame= 1344 fps=113 q=32.0 size=    2920kB time=00:00:56.21 bitrate= 425.5kbits/s dup=1 drop=0 speed=4.74x    frame= 1374 fps=111 q=32.0 size=    3038kB time=00:00:57.45 bitrate= 433.2kbits/s dup=1 drop=0 speed=4.65x    frame= 1415 fps=110 q=32.0 size=    3180kB time=00:00:59.15 bitrate= 440.4kbits/s dup=1 drop=0 speed= 4.6x    frame= 1463 fps=110 q=32.0 size=    3284kB time=00:01:01.16 bitrate= 439.9kbits/s dup=1 drop=0 speed=4.58x    frame= 1509 fps=109 q=32.0 size=    3419kB time=00:01:03.08 bitrate= 444.0kbits/s dup=1 drop=0 speed=4.55x    frame= 1560 fps=108 q=32.0 size=    3542kB time=00:01:05.21 bitrate= 444.9kbits/s dup=1 drop=0 speed=4.54x    frame= 1616 fps=109 q=32.0 size=    3652kB time=00:01:07.56 bitrate= 442.8kbits/s dup=1 drop=0 speed=4.54x    frame= 1668 fps=108 q=32.0 size=    3853kB time=00:01:09.73 bitrate= 452.6kbits/s dup=1 drop=0 speed=4.53x    frame= 1706 fps=107 q=32.0 size=    4025kB time=00:01:11.31 bitrate= 462.3kbits/s dup=1 drop=0 speed=4.48x    frame= 1756 fps=107 q=32.0 size=    4119kB time=00:01:13.40 bitrate= 459.7kbits/s dup=1 drop=0 speed=4.47x    frame= 1791 fps=106 q=32.0 size=    4276kB time=00:01:14.85 bitrate= 468.0kbits/s dup=1 drop=0 speed=4.42x    frame= 1824 fps=104 q=32.0 size=    4379kB time=00:01:16.22 bitrate= 470.6kbits/s dup=1 drop=0 speed=4.36x    frame= 1857 fps=103 q=32.0 size=    4471kB time=00:01:17.63 bitrate= 471.8kbits/s dup=1 drop=0 speed=4.32x    frame= 1896 fps=102 q=32.0 size=    4622kB time=00:01:19.25 bitrate= 477.7kbits/s dup=1 drop=0 speed=4.28x    frame= 1927 fps=101 q=32.0 size=    4704kB time=00:01:20.53 bitrate= 478.5kbits/s dup=1 drop=0 speed=4.24x    frame= 1958 fps=100 q=32.0 size=    4795kB time=00:01:21.81 bitrate= 480.1kbits/s dup=1 drop=0 speed=4.19x    frame= 1995 fps=100 q=32.0 size=    4903kB time=00:01:23.39 bitrate= 481.6kbits/s dup=1 drop=0 speed=4.16x    frame= 2032 fps= 99 q=32.0 size=    5026kB time=00:01:24.92 bitrate= 484.8kbits/s dup=1 drop=0 speed=4.13x    frame= 2073 fps= 98 q=32.0 size=    5148kB time=00:01:26.63 bitrate= 486.8kbits/s dup=1 drop=0 speed=4.11x    frame= 2131 fps= 99 q=32.0 size=    5257kB time=00:01:29.02 bitrate= 483.7kbits/s dup=1 drop=0 speed=4.13x    frame= 2176 fps= 99 q=32.0 size=    5345kB time=00:01:30.90 bitrate= 481.7kbits/s dup=1 drop=0 speed=4.12x    frame= 2264 fps=100 q=32.0 size=    5438kB time=00:01:34.57 bitrate= 471.0kbits/s dup=1 drop=0 speed=4.19x    frame= 2374 fps=103 q=32.0 size=    5557kB time=00:01:39.17 bitrate= 459.0kbits/s dup=1 drop=0 speed= 4.3x    frame= 2462 fps=104 q=29.0 size=    5668kB time=00:01:42.84 bitrate= 451.5kbits/s dup=1 drop=0 speed=4.36x    frame= 2512 fps=104 q=32.0 size=    5787kB time=00:01:44.93 bitrate= 451.7kbits/s dup=1 drop=0 speed=4.35x    frame= 2553 fps=104 q=32.0 size=    5879kB time=00:01:46.64 bitrate= 451.6kbits/s dup=1 drop=0 speed=4.33x    frame= 2608 fps=104 q=32.0 size=    5992kB time=00:01:48.95 bitrate= 450.6kbits/s dup=1 drop=0 speed=4.34x    frame= 2676 fps=104 q=32.0 size=    6134kB time=00:01:51.76 bitrate= 449.6kbits/s dup=1 drop=0 speed=4.36x    frame= 2762 fps=106 q=32.0 size=    6272kB time=00:01:55.35 bitrate= 445.4kbits/s dup=1 drop=0 speed=4.41x    frame= 2828 fps=106 q=32.0 size=    6412kB time=00:01:58.12 bitrate= 444.7kbits/s dup=1 drop=0 speed=4.43x    frame= 2872 fps=106 q=32.0 size=    6535kB time=00:01:59.95 bitrate= 446.3kbits/s dup=1 drop=0 speed=4.41x    frame= 2956 fps=107 q=32.0 size=    6668kB time=00:02:03.45 bitrate= 442.4kbits/s dup=1 drop=0 speed=4.45x    frame= 3047 fps=108 q=32.0 size=    6749kB time=00:02:07.25 bitrate= 434.5kbits/s dup=1 drop=0 speed=4.51x    frame= 3136 fps=109 q=32.0 size=    6872kB time=00:02:10.96 bitrate= 429.8kbits/s dup=1 drop=0 speed=4.56x    frame= 3195 fps=109 q=32.0 size=    6965kB time=00:02:13.39 bitrate= 427.7kbits/s dup=1 drop=0 speed=4.56x    frame= 3261 fps=110 q=32.0 size=    7116kB time=00:02:16.17 bitrate= 428.1kbits/s dup=1 drop=0 speed=4.58x    frame= 3343 fps=111 q=32.0 size=    7244kB time=00:02:19.58 bitrate= 425.1kbits/s dup=1 drop=0 speed=4.62x    frame= 3421 fps=111 q=32.0 size=    7326kB time=00:02:22.82 bitrate= 420.2kbits/s dup=1 drop=0 speed=4.64x    frame= 3500 fps=112 q=32.0 size=    7451kB time=00:02:26.15 bitrate= 417.6kbits/s dup=1 drop=0 speed=4.67x    frame= 3580 fps=113 q=29.0 size=    7525kB time=00:02:29.48 bitrate= 412.4kbits/s dup=1 drop=0 speed= 4.7x    frame= 3651 fps=113 q=32.0 size=    7666kB time=00:02:32.42 bitrate= 412.0kbits/s dup=1 drop=0 speed=4.72x    frame= 3714 fps=113 q=32.0 size=    7751kB time=00:02:35.07 bitrate= 409.5kbits/s dup=1 drop=0 speed=4.73x    frame= 3766 fps=113 q=32.0 size=    7840kB time=00:02:37.20 bitrate= 408.5kbits/s dup=1 drop=0 speed=4.72x    frame= 3836 fps=114 q=32.0 size=    7969kB time=00:02:40.19 bitrate= 407.5kbits/s dup=1 drop=0 speed=4.74x    frame= 3900 fps=114 q=32.0 size=    8108kB time=00:02:42.79 bitrate= 408.0kbits/s dup=1 drop=0 speed=4.75x    frame= 3968 fps=114 q=32.0 size=    8207kB time=00:02:45.65 bitrate= 405.8kbits/s dup=1 drop=0 speed=4.76x    frame= 4056 fps=115 q=32.0 size=    8278kB time=00:02:49.32 bitrate= 400.5kbits/s dup=1 drop=0 speed= 4.8x    frame= 4119 fps=115 q=32.0 size=    8389kB time=00:02:51.96 bitrate= 399.6kbits/s dup=1 drop=0 speed= 4.8x    frame= 4210 fps=116 q=32.0 size=    8504kB time=00:02:55.76 bitrate= 396.3kbits/s dup=1 drop=0 speed=4.84x    frame= 4271 fps=116 q=32.0 size=    8622kB time=00:02:58.28 bitrate= 396.2kbits/s dup=1 drop=0 speed=4.84x    frame= 4378 fps=117 q=32.0 size=    8744kB time=00:03:02.76 bitrate= 391.9kbits/s dup=1 drop=0 speed= 4.9x    frame= 4462 fps=118 q=32.0 size=    8830kB time=00:03:06.21 bitrate= 388.4kbits/s dup=1 drop=0 speed=4.93x    frame= 4524 fps=118 q=32.0 size=    8957kB time=00:03:08.86 bitrate= 388.5kbits/s dup=1 drop=0 speed=4.93x    frame= 4594 fps=118 q=32.0 size=    9100kB time=00:03:11.76 bitrate= 388.7kbits/s dup=1 drop=0 speed=4.94x    frame= 4654 fps=118 q=32.0 size=    9228kB time=00:03:14.28 bitrate= 389.1kbits/s dup=1 drop=0 speed=4.94x    frame= 4731 fps=119 q=32.0 size=    9362kB time=00:03:17.48 bitrate= 388.3kbits/s dup=1 drop=0 speed=4.96x    frame= 4800 fps=119 q=32.0 size=    9504kB time=00:03:20.34 bitrate= 388.6kbits/s dup=1 drop=0 speed=4.96x    frame= 4871 fps=119 q=32.0 size=    9590kB time=00:03:23.32 bitrate= 386.4kbits/s dup=1 drop=0 speed=4.98x    frame= 4943 fps=120 q=32.0 size=    9690kB time=00:03:26.31 bitrate= 384.7kbits/s dup=1 drop=0 speed=4.99x    frame= 4993 fps=119 q=32.0 size=    9778kB time=00:03:28.40 bitrate= 384.3kbits/s dup=1 drop=0 speed=4.97x    frame= 5060 fps=119 q=29.0 size=    9888kB time=00:03:31.17 bitrate= 383.6kbits/s dup=1 drop=0 speed=4.98x    frame= 5125 fps=119 q=32.0 size=    9975kB time=00:03:33.91 bitrate= 382.0kbits/s dup=1 drop=0 speed=4.99x    frame= 5174 fps=119 q=32.0 size=   10119kB time=00:03:35.95 bitrate= 383.9kbits/s dup=1 drop=0 speed=4.98x    frame= 5234 fps=119 q=32.0 size=   10255kB time=00:03:38.47 bitrate= 384.5kbits/s dup=1 drop=0 speed=4.97x    frame= 5314 fps=120 q=32.0 size=   10382kB time=00:03:41.80 bitrate= 383.4kbits/s dup=1 drop=0 speed=4.99x    frame= 5403 fps=120 q=32.0 size=   10466kB time=00:03:45.51 bitrate= 380.2kbits/s dup=1 drop=0 speed=5.02x    frame= 5470 fps=120 q=32.0 size=   10602kB time=00:03:48.33 bitrate= 380.4kbits/s dup=1 drop=0 speed=5.02x    frame= 5532 fps=120 q=32.0 size=   10756kB time=00:03:50.89 bitrate= 381.6kbits/s dup=1 drop=0 speed=5.02x    frame= 5612 fps=121 q=32.0 size=   10926kB time=00:03:54.21 bitrate= 382.1kbits/s dup=1 drop=0 speed=5.04x    frame= 5692 fps=121 q=32.0 size=   11026kB time=00:03:57.54 bitrate= 380.3kbits/s dup=1 drop=0 speed=5.05x    frame= 5764 fps=121 q=32.0 size=   11149kB time=00:04:00.57 bitrate= 379.6kbits/s dup=1 drop=0 speed=5.06x    frame= 5840 fps=122 q=32.0 size=   11304kB time=00:04:03.73 bitrate= 379.9kbits/s dup=1 drop=0 speed=5.08x    frame= 5931 fps=122 q=32.0 size=   11415kB time=00:04:07.53 bitrate= 377.8kbits/s dup=1 drop=0 speed= 5.1x    frame= 6010 fps=123 q=32.0 size=   11515kB time=00:04:10.81 bitrate= 376.1kbits/s dup=1 drop=0 speed=5.12x    frame= 6096 fps=123 q=32.0 size=   11643kB time=00:04:14.44 bitrate= 374.9kbits/s dup=1 drop=0 speed=5.14x    frame= 6156 fps=123 q=32.0 size=   11749kB time=00:04:16.96 bitrate= 374.6kbits/s dup=1 drop=0 speed=5.13x    frame= 6254 fps=124 q=32.0 size=   11843kB time=00:04:21.01 bitrate= 371.7kbits/s dup=1 drop=0 speed=5.16x    frame= 6337 fps=124 q=32.0 size=   11975kB time=00:04:24.47 bitrate= 370.9kbits/s dup=1 drop=0 speed=5.18x    frame= 6406 fps=124 q=32.0 size=   12101kB time=00:04:27.32 bitrate= 370.8kbits/s dup=1 drop=0 speed=5.19x    frame= 6468 fps=124 q=32.0 size=   12204kB time=00:04:29.93 bitrate= 370.4kbits/s dup=1 drop=0 speed=5.18x    frame= 6544 fps=124 q=32.0 size=   12353kB time=00:04:33.08 bitrate= 370.6kbits/s dup=1 drop=0 speed=5.19x    frame= 6643 fps=125 q=32.0 size=   12454kB time=00:04:37.22 bitrate= 368.0kbits/s dup=1 drop=0 speed=5.22x    frame= 6725 fps=125 q=32.0 size=   12571kB time=00:04:40.64 bitrate= 367.0kbits/s dup=1 drop=0 speed=5.24x    frame= 6804 fps=126 q=32.0 size=   12719kB time=00:04:43.92 bitrate= 367.0kbits/s dup=1 drop=0 speed=5.25x    frame= 6863 fps=126 q=32.0 size=   12841kB time=00:04:46.40 bitrate= 367.3kbits/s dup=1 drop=0 speed=5.24x    frame= 6916 fps=125 q=32.0 size=   13004kB time=00:04:48.61 bitrate= 369.1kbits/s dup=1 drop=0 speed=5.24x    frame= 6964 fps=125 q=32.0 size=   13157kB time=00:04:50.62 bitrate= 370.9kbits/s dup=1 drop=0 speed=5.22x    frame= 7015 fps=125 q=32.0 size=   13308kB time=00:04:52.75 bitrate= 372.4kbits/s dup=1 drop=0 speed=5.21x    frame= 7081 fps=125 q=32.0 size=   13449kB time=00:04:55.48 bitrate= 372.9kbits/s dup=1 drop=0 speed=5.21x    frame= 7140 fps=125 q=32.0 size=   13604kB time=00:04:57.96 bitrate= 374.0kbits/s dup=1 drop=0 speed=5.21x    frame= 7221 fps=125 q=32.0 size=   13756kB time=00:05:01.33 bitrate= 374.0kbits/s dup=1 drop=0 speed=5.22x    frame= 7296 fps=125 q=32.0 size=   13862kB time=00:05:04.44 bitrate= 373.0kbits/s dup=1 drop=0 speed=5.23x    frame= 7373 fps=126 q=32.0 size=   13937kB time=00:05:07.69 bitrate= 371.1kbits/s dup=1 drop=0 speed=5.24x    frame= 7447 fps=126 q=32.0 size=   14083kB time=00:05:10.76 bitrate= 371.2kbits/s dup=1 drop=0 speed=5.25x    frame= 7518 fps=126 q=32.0 size=   14225kB time=00:05:13.70 bitrate= 371.5kbits/s dup=1 drop=0 speed=5.25x    frame= 7592 fps=126 q=32.0 size=   14352kB time=00:05:16.77 bitrate= 371.2kbits/s dup=1 drop=0 speed=5.26x    frame= 7690 fps=127 q=32.0 size=   14471kB time=00:05:20.91 bitrate= 369.4kbits/s dup=1 drop=0 speed=5.29x    frame= 7788 fps=127 q=32.0 size=   14565kB time=00:05:25.01 bitrate= 367.1kbits/s dup=1 drop=0 speed=5.31x    frame= 7879 fps=128 q=32.0 size=   14701kB time=00:05:28.76 bitrate= 366.3kbits/s dup=1 drop=0 speed=5.33x    frame= 7946 fps=128 q=32.0 size=   14827kB time=00:05:31.58 bitrate= 366.3kbits/s dup=1 drop=0 speed=5.33x    frame= 8023 fps=128 q=32.0 size=   14978kB time=00:05:34.78 bitrate= 366.5kbits/s dup=1 drop=0 speed=5.34x    frame= 8099 fps=128 q=32.0 size=   15102kB time=00:05:37.94 bitrate= 366.1kbits/s dup=1 drop=0 speed=5.34x    frame= 8171 fps=128 q=32.0 size=   15231kB time=00:05:40.97 bitrate= 365.9kbits/s dup=1 drop=0 speed=5.35x    frame= 8250 fps=128 q=32.0 size=   15368kB time=00:05:44.25 bitrate= 365.7kbits/s dup=1 drop=0 speed=5.36x    frame= 8320 fps=128 q=32.0 size=   15496kB time=00:05:47.15 bitrate= 365.7kbits/s dup=1 drop=0 speed=5.36x    frame= 8389 fps=129 q=32.0 size=   15615kB time=00:05:50.01 bitrate= 365.5kbits/s dup=1 drop=0 speed=5.36x    frame= 8472 fps=129 q=32.0 size=   15748kB time=00:05:53.51 bitrate= 364.9kbits/s dup=1 drop=0 speed=5.37x    frame= 8548 fps=129 q=32.0 size=   15866kB time=00:05:56.67 bitrate= 364.4kbits/s dup=1 drop=0 speed=5.38x    frame= 8619 fps=129 q=32.0 size=   15997kB time=00:05:59.65 bitrate= 364.4kbits/s dup=1 drop=0 speed=5.38x    frame= 8688 fps=129 q=32.0 size=   16127kB time=00:06:02.51 bitrate= 364.4kbits/s dup=1 drop=0 speed=5.39x    frame= 8755 fps=129 q=32.0 size=   16269kB time=00:06:05.29 bitrate= 364.9kbits/s dup=1 drop=0 speed=5.39x    frame= 8836 fps=129 q=32.0 size=   16392kB time=00:06:08.70 bitrate= 364.2kbits/s dup=1 drop=0 speed= 5.4x    frame= 8917 fps=130 q=32.0 size=   16505kB time=00:06:12.07 bitrate= 363.4kbits/s dup=1 drop=0 speed=5.41x    frame= 8970 fps=129 q=32.0 size=   16599kB time=00:06:14.29 bitrate= 363.3kbits/s dup=1 drop=0 speed= 5.4x    frame= 9010 fps=129 q=32.0 size=   16798kB time=00:06:15.95 bitrate= 366.0kbits/s dup=1 drop=0 speed=5.38x    frame= 9065 fps=129 q=32.0 size=   16959kB time=00:06:18.21 bitrate= 367.3kbits/s dup=1 drop=0 speed=5.38x    frame= 9146 fps=129 q=32.0 size=   17141kB time=00:06:21.63 bitrate= 368.0kbits/s dup=1 drop=0 speed=5.39x    frame= 9216 fps=129 q=32.0 size=   17301kB time=00:06:24.53 bitrate= 368.6kbits/s dup=1 drop=0 speed=5.39x    frame= 9283 fps=129 q=32.0 size=   17451kB time=00:06:27.35 bitrate= 369.1kbits/s dup=1 drop=0 speed=5.39x    frame= 9355 fps=129 q=32.0 size=   17580kB time=00:06:30.37 bitrate= 368.9kbits/s dup=1 drop=0 speed=5.39x    frame= 9436 fps=130 q=32.0 size=   17735kB time=00:06:33.70 bitrate= 369.0kbits/s dup=1 drop=0 speed= 5.4x    frame= 9520 fps=130 q=32.0 size=   17835kB time=00:06:37.20 bitrate= 367.8kbits/s dup=1 drop=0 speed=5.41x    frame= 9599 fps=130 q=32.0 size=   17969kB time=00:06:40.53 bitrate= 367.5kbits/s dup=1 drop=0 speed=5.42x    frame= 9664 fps=130 q=32.0 size=   18095kB time=00:06:43.26 bitrate= 367.6kbits/s dup=1 drop=0 speed=5.42x    frame= 9729 fps=130 q=32.0 size=   18234kB time=00:06:45.95 bitrate= 368.0kbits/s dup=1 drop=0 speed=5.42x    frame= 9807 fps=130 q=32.0 size=   18316kB time=00:06:49.19 bitrate= 366.7kbits/s dup=1 drop=0 speed=5.43x    frame= 9858 fps=130 q=32.0 size=   18445kB time=00:06:51.32 bitrate= 367.3kbits/s dup=1 drop=0 speed=5.42x    frame= 9948 fps=130 q=32.0 size=   18559kB time=00:06:55.08 bitrate= 366.3kbits/s dup=1 drop=0 speed=5.43x    frame=10033 fps=130 q=32.0 size=   18688kB time=00:06:58.62 bitrate= 365.7kbits/s dup=1 drop=0 speed=5.44x    frame=10109 fps=131 q=32.0 size=   18822kB time=00:07:01.78 bitrate= 365.6kbits/s dup=1 drop=0 speed=5.45x    frame=10225 fps=131 q=32.0 size=   18904kB time=00:07:06.60 bitrate= 363.0kbits/s dup=1 drop=0 speed=5.48x    frame=10322 fps=132 q=32.0 size=   19032kB time=00:07:10.69 bitrate= 362.0kbits/s dup=1 drop=0 speed=5.49x    frame=10373 fps=131 q=32.0 size=   19149kB time=00:07:12.79 bitrate= 362.5kbits/s dup=1 drop=0 speed=5.48x    frame=10439 fps=131 q=32.0 size=   19285kB time=00:07:15.56 bitrate= 362.7kbits/s dup=1 drop=0 speed=5.48x    frame=10531 fps=132 q=32.0 size=   19408kB time=00:07:19.40 bitrate= 361.8kbits/s dup=1 drop=0 speed= 5.5x    frame=10584 fps=132 q=32.0 size=   19538kB time=00:07:21.57 bitrate= 362.5kbits/s dup=1 drop=0 speed=5.49x    frame=10632 fps=131 q=32.0 size=   19639kB time=00:07:23.58 bitrate= 362.7kbits/s dup=1 drop=0 speed=5.48x    frame=10700 fps=131 q=32.0 size=   19787kB time=00:07:26.44 bitrate= 363.1kbits/s dup=1 drop=0 speed=5.48x    frame=10792 fps=132 q=32.0 size=   19876kB time=00:07:30.28 bitrate= 361.6kbits/s dup=1 drop=0 speed=5.49x    frame=10889 fps=132 q=32.0 size=   19970kB time=00:07:34.33 bitrate= 360.1kbits/s dup=1 drop=0 speed=5.51x    frame=10976 fps=132 q=32.0 size=   20069kB time=00:07:37.96 bitrate= 359.0kbits/s dup=1 drop=0 speed=5.52x    frame=11071 fps=133 q=32.0 size=   20175kB time=00:07:41.88 bitrate= 357.8kbits/s dup=1 drop=0 speed=5.53x    frame=11160 fps=133 q=32.0 size=   20272kB time=00:07:45.64 bitrate= 356.6kbits/s dup=1 drop=0 speed=5.54x    frame=11263 fps=133 q=32.0 size=   20379kB time=00:07:49.91 bitrate= 355.3kbits/s dup=1 drop=0 speed=5.56x    frame=11352 fps=134 q=32.0 size=   20508kB time=00:07:53.62 bitrate= 354.7kbits/s dup=1 drop=0 speed=5.57x    frame=11451 fps=134 q=32.0 size=   20605kB time=00:07:57.76 bitrate= 353.3kbits/s dup=1 drop=0 speed=5.59x    frame=11553 fps=134 q=32.0 size=   20743kB time=00:08:02.02 bitrate= 352.5kbits/s dup=1 drop=0 speed= 5.6x    frame=11624 fps=134 q=32.0 size=   20829kB time=00:08:04.97 bitrate= 351.8kbits/s dup=1 drop=0 speed= 5.6x    frame=11681 fps=134 q=32.0 size=   20957kB time=00:08:07.36 bitrate= 352.3kbits/s dup=1 drop=0 speed= 5.6x    frame=11766 fps=134 q=32.0 size=   21079kB time=00:08:10.90 bitrate= 351.8kbits/s dup=1 drop=0 speed= 5.6x    frame=11862 fps=135 q=32.0 size=   21224kB time=00:08:14.91 bitrate= 351.3kbits/s dup=1 drop=0 speed=5.62x    frame=11937 fps=135 q=32.0 size=   21333kB time=00:08:18.02 bitrate= 350.9kbits/s dup=1 drop=0 speed=5.62x    frame=12031 fps=135 q=32.0 size=   21428kB time=00:08:21.95 bitrate= 349.7kbits/s dup=1 drop=0 speed=5.63x    frame=12097 fps=135 q=32.0 size=   21526kB time=00:08:24.68 bitrate= 349.4kbits/s dup=1 drop=0 speed=5.63x    frame=12178 fps=135 q=32.0 size=   21678kB time=00:08:28.09 bitrate= 349.5kbits/s dup=1 drop=0 speed=5.64x    frame=12254 fps=135 q=32.0 size=   21817kB time=00:08:31.25 bitrate= 349.6kbits/s dup=1 drop=0 speed=5.64x    frame=12342 fps=135 q=32.0 size=   21917kB time=00:08:34.92 bitrate= 348.7kbits/s dup=1 drop=0 speed=5.65x    frame=12428 fps=136 q=32.0 size=   21980kB time=00:08:38.50 bitrate= 347.3kbits/s dup=1 drop=0 speed=5.66x    frame=12487 fps=136 q=32.0 size=   22085kB time=00:08:40.98 bitrate= 347.3kbits/s dup=1 drop=0 speed=5.66x    frame=12555 fps=136 q=32.0 size=   22208kB time=00:08:43.84 bitrate= 347.3kbits/s dup=1 drop=0 speed=5.66x    frame=12637 fps=136 q=32.0 size=   22283kB time=00:08:47.21 bitrate= 346.2kbits/s dup=1 drop=0 speed=5.66x    frame=12735 fps=136 q=32.0 size=   22391kB time=00:08:51.35 bitrate= 345.2kbits/s dup=1 drop=0 speed=5.68x    frame=12811 fps=136 q=32.0 size=   22521kB time=00:08:54.46 bitrate= 345.2kbits/s dup=1 drop=0 speed=5.68x    frame=12910 fps=136 q=32.0 size=   22621kB time=00:08:58.60 bitrate= 344.1kbits/s dup=1 drop=0 speed=5.69x    frame=13018 fps=137 q=32.0 size=   22733kB time=00:09:03.12 bitrate= 342.9kbits/s dup=1 drop=0 speed=5.71x    frame=13129 fps=137 q=32.0 size=   22881kB time=00:09:07.73 bitrate= 342.2kbits/s dup=1 drop=0 speed=5.73x    frame=13220 fps=137 q=32.0 size=   22979kB time=00:09:11.53 bitrate= 341.3kbits/s dup=1 drop=0 speed=5.74x    frame=13311 fps=138 q=32.0 size=   23064kB time=00:09:15.32 bitrate= 340.2kbits/s dup=1 drop=0 speed=5.74x    frame=13394 fps=138 q=32.0 size=   23223kB time=00:09:18.78 bitrate= 340.5kbits/s dup=1 drop=0 speed=5.75x    frame=13474 fps=138 q=32.0 size=   23323kB time=00:09:22.11 bitrate= 339.9kbits/s dup=1 drop=0 speed=5.75x    frame=13567 fps=138 q=32.0 size=   23452kB time=00:09:25.99 bitrate= 339.4kbits/s dup=1 drop=0 speed=5.76x    frame=13658 fps=138 q=32.0 size=   23523kB time=00:09:29.79 bitrate= 338.2kbits/s dup=1 drop=0 speed=5.77x    frame=13743 fps=139 q=32.0 size=   23616kB time=00:09:33.33 bitrate= 337.4kbits/s dup=1 drop=0 speed=5.78x    frame=13830 fps=139 q=32.0 size=   23760kB time=00:09:37.00 bitrate= 337.3kbits/s dup=1 drop=0 speed=5.79x    frame=13902 fps=139 q=32.0 size=   23855kB time=00:09:39.99 bitrate= 336.9kbits/s dup=1 drop=0 speed=5.79x    frame=13968 fps=139 q=32.0 size=   23955kB time=00:09:42.76 bitrate= 336.7kbits/s dup=1 drop=0 speed=5.79x    frame=14045 fps=139 q=32.0 size=   24029kB time=00:09:45.96 bitrate= 335.9kbits/s dup=1 drop=0 speed=5.79x    frame=14120 fps=139 q=32.0 size=   24173kB time=00:09:49.07 bitrate= 336.2kbits/s dup=1 drop=0 speed=5.79x    frame=14195 fps=139 q=32.0 size=   24252kB time=00:09:52.19 bitrate= 335.5kbits/s dup=1 drop=0 speed=5.79x    frame=14275 fps=139 q=32.0 size=   24342kB time=00:09:55.52 bitrate= 334.8kbits/s dup=1 drop=0 speed= 5.8x    frame=14363 fps=139 q=32.0 size=   24459kB time=00:09:59.19 bitrate= 334.4kbits/s dup=1 drop=0 speed= 5.8x    frame=14447 fps=139 q=32.0 size=   24557kB time=00:10:02.73 bitrate= 333.8kbits/s dup=1 drop=0 speed=5.81x    frame=14531 fps=139 q=32.0 size=   24614kB time=00:10:06.23 bitrate= 332.6kbits/s dup=1 drop=0 speed=5.81x    frame=14588 fps=139 q=32.0 size=   24730kB time=00:10:08.57 bitrate= 332.9kbits/s dup=1 drop=0 speed=5.81x    frame=14665 fps=139 q=32.0 size=   24859kB time=00:10:11.81 bitrate= 332.8kbits/s dup=1 drop=0 speed=5.81x    frame=14775 fps=140 q=32.0 size=   24940kB time=00:10:16.38 bitrate= 331.5kbits/s dup=1 drop=0 speed=5.83x    frame=14892 fps=140 q=32.0 size=   25037kB time=00:10:21.29 bitrate= 330.1kbits/s dup=1 drop=0 speed=5.85x    frame=14975 fps=140 q=32.0 size=   25117kB time=00:10:24.74 bitrate= 329.3kbits/s dup=1 drop=0 speed=5.85x    frame=15058 fps=140 q=32.0 size=   25225kB time=00:10:28.20 bitrate= 328.9kbits/s dup=1 drop=0 speed=5.86x    frame=15150 fps=141 q=32.0 size=   25357kB time=00:10:32.04 bitrate= 328.7kbits/s dup=1 drop=0 speed=5.86x    frame=15250 fps=141 q=32.0 size=   25455kB time=00:10:36.22 bitrate= 327.8kbits/s dup=1 drop=0 speed=5.88x    frame=15347 fps=141 q=32.0 size=   25573kB time=00:10:40.23 bitrate= 327.2kbits/s dup=1 drop=0 speed=5.89x    frame=15446 fps=141 q=32.0 size=   25669kB time=00:10:44.41 bitrate= 326.3kbits/s dup=1 drop=0 speed= 5.9x    frame=15540 fps=142 q=32.0 size=   25803kB time=00:10:48.29 bitrate= 326.0kbits/s dup=1 drop=0 speed=5.91x    frame=15644 fps=142 q=32.0 size=   25926kB time=00:10:52.65 bitrate= 325.4kbits/s dup=1 drop=0 speed=5.92x    frame=15745 fps=142 q=32.0 size=   26022kB time=00:10:56.87 bitrate= 324.5kbits/s dup=1 drop=0 speed=5.93x    frame=15849 fps=142 q=32.0 size=   26130kB time=00:11:01.18 bitrate= 323.7kbits/s dup=1 drop=0 speed=5.94x    frame=15923 fps=142 q=32.0 size=   26199kB time=00:11:04.25 bitrate= 323.1kbits/s dup=1 drop=0 speed=5.94x    frame=15990 fps=142 q=32.0 size=   26315kB time=00:11:07.07 bitrate= 323.2kbits/s dup=1 drop=0 speed=5.94x    frame=16085 fps=143 q=32.0 size=   26412kB time=00:11:11.08 bitrate= 322.4kbits/s dup=1 drop=0 speed=5.95x    frame=16170 fps=143 q=32.0 size=   26524kB time=00:11:14.58 bitrate= 322.1kbits/s dup=1 drop=0 speed=5.95x    frame=16242 fps=143 q=32.0 size=   26626kB time=00:11:17.56 bitrate= 321.9kbits/s dup=1 drop=0 speed=5.95x    frame=16315 fps=143 q=32.0 size=   26724kB time=00:11:20.64 bitrate= 321.6kbits/s dup=1 drop=0 speed=5.95x    frame=16399 fps=143 q=32.0 size=   26839kB time=00:11:24.13 bitrate= 321.4kbits/s dup=1 drop=0 speed=5.96x    frame=16499 fps=143 q=32.0 size=   26919kB time=00:11:28.27 bitrate= 320.4kbits/s dup=1 drop=0 speed=5.97x    frame=16580 fps=143 q=32.0 size=   27043kB time=00:11:31.69 bitrate= 320.3kbits/s dup=1 drop=0 speed=5.97x    frame=16622 fps=143 q=32.0 size=   27144kB time=00:11:33.44 bitrate= 320.7kbits/s dup=1 drop=0 speed=5.96x    frame=16662 fps=143 q=32.0 size=   27233kB time=00:11:35.10 bitrate= 321.0kbits/s dup=1 drop=0 speed=5.95x    frame=16722 fps=143 q=32.0 size=   27354kB time=00:11:37.62 bitrate= 321.2kbits/s dup=1 drop=0 speed=5.95x    frame=16819 fps=143 q=32.0 size=   27415kB time=00:11:41.67 bitrate= 320.1kbits/s dup=1 drop=0 speed=5.95x    frame=16897 fps=143 q=32.0 size=   27515kB time=00:11:44.91 bitrate= 319.8kbits/s dup=1 drop=0 speed=5.96x    frame=16957 fps=143 q=32.0 size=   27592kB time=00:11:47.39 bitrate= 319.5kbits/s dup=1 drop=0 speed=5.95x    frame=17037 fps=143 q=32.0 size=   27700kB time=00:11:50.72 bitrate= 319.3kbits/s dup=1 drop=0 speed=5.96x    frame=17120 fps=143 q=32.0 size=   27791kB time=00:11:54.21 bitrate= 318.8kbits/s dup=1 drop=0 speed=5.96x    frame=17207 fps=143 q=32.0 size=   27872kB time=00:11:57.84 bitrate= 318.1kbits/s dup=1 drop=0 speed=5.96x    frame=17312 fps=143 q=32.0 size=   27979kB time=00:12:02.19 bitrate= 317.4kbits/s dup=1 drop=0 speed=5.98x    frame=17417 fps=144 q=32.0 size=   28053kB time=00:12:06.59 bitrate= 316.3kbits/s dup=1 drop=0 speed=5.99x    frame=17483 fps=143 q=32.0 size=   28139kB time=00:12:09.32 bitrate= 316.1kbits/s dup=1 drop=0 speed=5.98x    frame=17579 fps=144 q=32.0 size=   28243kB time=00:12:13.33 bitrate= 315.5kbits/s dup=1 drop=0 speed=5.99x    frame=17686 fps=144 q=32.0 size=   28357kB time=00:12:17.81 bitrate= 314.8kbits/s dup=1 drop=0 speed=   6x    frame=17800 fps=144 q=32.0 size=   28436kB time=00:12:22.55 bitrate= 313.7kbits/s dup=1 drop=0 speed=6.01x    frame=17897 fps=144 q=32.0 size=   28573kB time=00:12:26.60 bitrate= 313.5kbits/s dup=1 drop=0 speed=6.02x    frame=17988 fps=144 q=32.0 size=   28682kB time=00:12:30.44 bitrate= 313.1kbits/s dup=1 drop=0 speed=6.03x    frame=18081 fps=145 q=32.0 size=   28757kB time=00:12:34.28 bitrate= 312.3kbits/s dup=1 drop=0 speed=6.03x    frame=18185 fps=145 q=32.0 size=   28889kB time=00:12:38.63 bitrate= 312.0kbits/s dup=1 drop=0 speed=6.04x    frame=18297 fps=145 q=32.0 size=   29021kB time=00:12:43.28 bitrate= 311.5kbits/s dup=1 drop=0 speed=6.06x    frame=18412 fps=145 q=32.0 size=   29107kB time=00:12:48.10 bitrate= 310.4kbits/s dup=1 drop=0 speed=6.07x    frame=18494 fps=146 q=32.0 size=   29258kB time=00:12:51.52 bitrate= 310.7kbits/s dup=1 drop=0 speed=6.07x    frame=18614 fps=146 q=32.0 size=   29339kB time=00:12:56.51 bitrate= 309.5kbits/s dup=1 drop=0 speed=6.09x    frame=18724 fps=146 q=32.0 size=   29439kB time=00:13:01.07 bitrate= 308.8kbits/s dup=1 drop=0 speed= 6.1x    frame=18807 fps=146 q=32.0 size=   29526kB time=00:13:04.57 bitrate= 308.3kbits/s dup=1 drop=0 speed= 6.1x    frame=18868 fps=146 q=32.0 size=   29587kB time=00:13:07.09 bitrate= 307.9kbits/s dup=1 drop=0 speed= 6.1x    frame=18961 fps=146 q=32.0 size=   29697kB time=00:13:10.97 bitrate= 307.6kbits/s dup=1 drop=0 speed= 6.1x    frame=19055 fps=146 q=32.0 size=   29793kB time=00:13:14.90 bitrate= 307.0kbits/s dup=1 drop=0 speed=6.11x    frame=19149 fps=147 q=32.0 size=   29889kB time=00:13:18.82 bitrate= 306.5kbits/s dup=1 drop=0 speed=6.12x    frame=19217 fps=147 q=32.0 size=   30022kB time=00:13:21.68 bitrate= 306.8kbits/s dup=1 drop=0 speed=6.12x    frame=19274 fps=146 q=32.0 size=   30098kB time=00:13:24.03 bitrate= 306.7kbits/s dup=1 drop=0 speed=6.11x    frame=19332 fps=146 q=32.0 size=   30177kB time=00:13:26.46 bitrate= 306.5kbits/s dup=1 drop=0 speed=6.11x    frame=19401 fps=146 q=32.0 size=   30295kB time=00:13:29.36 bitrate= 306.6kbits/s dup=1 drop=0 speed= 6.1x    frame=19482 fps=146 q=32.0 size=   30445kB time=00:13:32.69 bitrate= 306.9kbits/s dup=1 drop=0 speed=6.11x    frame=19568 fps=146 q=32.0 size=   30585kB time=00:13:36.32 bitrate= 306.9kbits/s dup=1 drop=0 speed=6.11x    frame=19632 fps=146 q=32.0 size=   30673kB time=00:13:38.96 bitrate= 306.8kbits/s dup=1 drop=0 speed=6.11x    frame=19739 fps=147 q=32.0 size=   30761kB time=00:13:43.44 bitrate= 306.0kbits/s dup=1 drop=0 speed=6.12x    frame=19848 fps=147 q=32.0 size=   30910kB time=00:13:48.01 bitrate= 305.8kbits/s dup=1 drop=0 speed=6.13x    frame=19959 fps=147 q=32.0 size=   31014kB time=00:13:52.61 bitrate= 305.1kbits/s dup=1 drop=0 speed=6.14x    frame=20089 fps=148 q=32.0 size=   31124kB time=00:13:58.03 bitrate= 304.2kbits/s dup=1 drop=0 speed=6.16x    frame=20187 fps=148 q=32.0 size=   31233kB time=00:14:02.13 bitrate= 303.8kbits/s dup=1 drop=0 speed=6.16x    frame=20273 fps=148 q=32.0 size=   31345kB time=00:14:05.71 bitrate= 303.6kbits/s dup=1 drop=0 speed=6.17x    frame=20346 fps=148 q=32.0 size=   31473kB time=00:14:08.74 bitrate= 303.8kbits/s dup=1 drop=0 speed=6.17x    frame=20438 fps=148 q=32.0 size=   31571kB time=00:14:12.58 bitrate= 303.3kbits/s dup=1 drop=0 speed=6.17x    frame=20520 fps=148 q=32.0 size=   31700kB time=00:14:16.00 bitrate= 303.4kbits/s dup=1 drop=0 speed=6.17x    frame=20614 fps=148 q=32.0 size=   31813kB time=00:14:19.92 bitrate= 303.1kbits/s dup=1 drop=0 speed=6.18x    frame=20703 fps=148 q=32.0 size=   31878kB time=00:14:23.63 bitrate= 302.4kbits/s dup=1 drop=0 speed=6.18x    frame=20766 fps=148 q=29.0 size=   31969kB time=00:14:26.28 bitrate= 302.3kbits/s dup=1 drop=0 speed=6.18x    frame=20853 fps=148 q=32.0 size=   32124kB time=00:14:29.91 bitrate= 302.5kbits/s dup=1 drop=0 speed=6.18x    frame=20959 fps=148 q=32.0 size=   32199kB time=00:14:34.30 bitrate= 301.7kbits/s dup=1 drop=0 speed=6.19x    frame=21021 fps=148 q=32.0 size=   32302kB time=00:14:36.90 bitrate= 301.8kbits/s dup=1 drop=0 speed=6.19x    frame=21110 fps=148 q=32.0 size=   32409kB time=00:14:40.61 bitrate= 301.5kbits/s dup=1 drop=0 speed=6.19x    frame=21198 fps=149 q=32.0 size=   32591kB time=00:14:44.28 bitrate= 301.9kbits/s dup=1 drop=0 speed= 6.2x    frame=21283 fps=149 q=32.0 size=   32712kB time=00:14:47.83 bitrate= 301.8kbits/s dup=1 drop=0 speed= 6.2x    frame=21366 fps=149 q=32.0 size=   32835kB time=00:14:51.28 bitrate= 301.8kbits/s dup=1 drop=0 speed= 6.2x    frame=21453 fps=149 q=32.0 size=   32957kB time=00:14:54.95 bitrate= 301.7kbits/s dup=1 drop=0 speed=6.21x    frame=21545 fps=149 q=32.0 size=   33037kB time=00:14:58.75 bitrate= 301.1kbits/s dup=1 drop=0 speed=6.21x    frame=21644 fps=149 q=32.0 size=   33138kB time=00:15:02.89 bitrate= 300.7kbits/s dup=1 drop=0 speed=6.22x    frame=21758 fps=149 q=32.0 size=   33248kB time=00:15:07.67 bitrate= 300.1kbits/s dup=1 drop=0 speed=6.23x    frame=21859 fps=149 q=32.0 size=   33383kB time=00:15:11.85 bitrate= 299.9kbits/s dup=1 drop=0 speed=6.23x    frame=21926 fps=149 q=32.0 size=   33471kB time=00:15:14.66 bitrate= 299.8kbits/s dup=1 drop=0 speed=6.23x    frame=22009 fps=149 q=32.0 size=   33558kB time=00:15:18.12 bitrate= 299.4kbits/s dup=1 drop=0 speed=6.23x    frame=22068 fps=149 q=32.0 size=   33672kB time=00:15:20.55 bitrate= 299.6kbits/s dup=1 drop=0 speed=6.22x    frame=22130 fps=149 q=32.0 size=   33798kB time=00:15:23.15 bitrate= 299.9kbits/s dup=1 drop=0 speed=6.22x    frame=22217 fps=149 q=32.0 size=   33961kB time=00:15:26.78 bitrate= 300.2kbits/s dup=1 drop=0 speed=6.22x    frame=22294 fps=149 q=32.0 size=   34106kB time=00:15:29.98 bitrate= 300.4kbits/s dup=1 drop=0 speed=6.22x    frame=22358 fps=149 q=32.0 size=   34249kB time=00:15:32.67 bitrate= 300.8kbits/s dup=1 drop=0 speed=6.22x    frame=22451 fps=149 q=32.0 size=   34370kB time=00:15:36.55 bitrate= 300.6kbits/s dup=1 drop=0 speed=6.22x    frame=22545 fps=149 q=32.0 size=   34449kB time=00:15:40.48 bitrate= 300.1kbits/s dup=1 drop=0 speed=6.23x    frame=22609 fps=149 q=32.0 size=   34576kB time=00:15:43.16 bitrate= 300.3kbits/s dup=1 drop=0 speed=6.23x    frame=22675 fps=149 q=32.0 size=   34710kB time=00:15:45.89 bitrate= 300.6kbits/s dup=1 drop=0 speed=6.22x    frame=22775 fps=149 q=32.0 size=   34795kB time=00:15:50.08 bitrate= 300.0kbits/s dup=1 drop=0 speed=6.23x    frame=22845 fps=149 q=32.0 size=   34873kB time=00:15:52.98 bitrate= 299.8kbits/s dup=1 drop=0 speed=6.23x    frame=22896 fps=149 q=32.0 size=   34993kB time=00:15:55.11 bitrate= 300.1kbits/s dup=1 drop=0 speed=6.22x    frame=22942 fps=149 q=32.0 size=   35103kB time=00:15:57.03 bitrate= 300.5kbits/s dup=1 drop=0 speed=6.21x    frame=22992 fps=149 q=32.0 size=   35216kB time=00:15:59.12 bitrate= 300.8kbits/s dup=1 drop=0 speed=6.21x    frame=23069 fps=149 q=32.0 size=   35324kB time=00:16:02.32 bitrate= 300.7kbits/s dup=1 drop=0 speed=6.21x    frame=23131 fps=149 q=32.0 size=   35469kB time=00:16:04.92 bitrate= 301.1kbits/s dup=1 drop=0 speed= 6.2x    frame=23228 fps=149 q=32.0 size=   35547kB time=00:16:08.93 bitrate= 300.5kbits/s dup=1 drop=0 speed=6.21x    frame=23312 fps=149 q=32.0 size=   35623kB time=00:16:12.43 bitrate= 300.1kbits/s dup=1 drop=0 speed=6.21x    frame=23369 fps=149 q=32.0 size=   35737kB time=00:16:14.82 bitrate= 300.3kbits/s dup=1 drop=0 speed=6.21x    frame=23420 fps=149 q=32.0 size=   35839kB time=00:16:16.96 bitrate= 300.5kbits/s dup=1 drop=0 speed= 6.2x    frame=23473 fps=148 q=32.0 size=   35941kB time=00:16:19.17 bitrate= 300.7kbits/s dup=1 drop=0 speed=6.19x    frame=23536 fps=148 q=32.0 size=   36047kB time=00:16:21.82 bitrate= 300.8kbits/s dup=1 drop=0 speed=6.19x    frame=23641 fps=149 q=32.0 size=   36169kB time=00:16:26.17 bitrate= 300.4kbits/s dup=1 drop=0 speed= 6.2x    frame=23762 fps=149 q=32.0 size=   36270kB time=00:16:31.21 bitrate= 299.8kbits/s dup=1 drop=0 speed=6.21x    frame=23844 fps=149 q=32.0 size=   36377kB time=00:16:34.66 bitrate= 299.6kbits/s dup=1 drop=0 speed=6.21x    frame=23911 fps=149 q=32.0 size=   36506kB time=00:16:37.44 bitrate= 299.8kbits/s dup=1 drop=0 speed=6.21x    frame=23972 fps=149 q=32.0 size=   36576kB time=00:16:39.95 bitrate= 299.6kbits/s dup=1 drop=0 speed=6.21x    frame=24031 fps=149 q=32.0 size=   36647kB time=00:16:42.47 bitrate= 299.5kbits/s dup=1 drop=0 speed= 6.2x    frame=24093 fps=149 q=32.0 size=   36719kB time=00:16:45.03 bitrate= 299.3kbits/s dup=1 drop=0 speed= 6.2x    frame=24157 fps=149 q=32.0 size=   36814kB time=00:16:47.72 bitrate= 299.3kbits/s dup=1 drop=0 speed= 6.2x    frame=24219 fps=148 q=32.0 size=   36895kB time=00:16:50.28 bitrate= 299.2kbits/s dup=1 drop=0 speed=6.19x    frame=24291 fps=148 q=32.0 size=   36995kB time=00:16:53.31 bitrate= 299.1kbits/s dup=1 drop=0 speed=6.19x    frame=24367 fps=148 q=32.0 size=   37088kB time=00:16:56.47 bitrate= 298.9kbits/s dup=1 drop=0 speed=6.19x    frame=24456 fps=149 q=32.0 size=   37223kB time=00:17:00.18 bitrate= 298.9kbits/s dup=1 drop=0 speed= 6.2x    frame=24571 fps=149 q=32.0 size=   37332kB time=00:17:04.96 bitrate= 298.4kbits/s dup=1 drop=0 speed=6.21x    frame=24690 fps=149 q=32.0 size=   37432kB time=00:17:09.91 bitrate= 297.7kbits/s dup=1 drop=0 speed=6.22x    frame=24792 fps=149 q=32.0 size=   37503kB time=00:17:14.17 bitrate= 297.1kbits/s dup=1 drop=0 speed=6.22x    frame=24879 fps=149 q=32.0 size=   37620kB time=00:17:17.84 bitrate= 296.9kbits/s dup=1 drop=0 speed=6.23x    frame=24957 fps=149 q=32.0 size=   37707kB time=00:17:21.08 bitrate= 296.7kbits/s dup=1 drop=0 speed=6.23x    frame=25067 fps=149 q=32.0 size=   37808kB time=00:17:25.65 bitrate= 296.2kbits/s dup=1 drop=0 speed=6.24x    frame=25158 fps=150 q=32.0 size=   37922kB time=00:17:29.45 bitrate= 296.0kbits/s dup=1 drop=0 speed=6.24x    frame=25227 fps=150 q=32.0 size=   38005kB time=00:17:32.31 bitrate= 295.9kbits/s dup=1 drop=0 speed=6.24x    frame=25331 fps=150 q=32.0 size=   38076kB time=00:17:36.66 bitrate= 295.2kbits/s dup=1 drop=0 speed=6.24x    frame=25432 fps=150 q=32.0 size=   38179kB time=00:17:40.88 bitrate= 294.8kbits/s dup=1 drop=0 speed=6.25x    frame=25540 fps=150 q=32.0 size=   38248kB time=00:17:45.36 bitrate= 294.1kbits/s dup=1 drop=0 speed=6.26x    frame=25641 fps=150 q=32.0 size=   38358kB time=00:17:49.59 bitrate= 293.8kbits/s dup=1 drop=0 speed=6.27x    frame=25745 fps=150 q=32.0 size=   38449kB time=00:17:53.94 bitrate= 293.3kbits/s dup=1 drop=0 speed=6.27x    frame=25822 fps=150 q=32.0 size=   38559kB time=00:17:57.09 bitrate= 293.3kbits/s dup=1 drop=0 speed=6.27x    frame=25901 fps=150 q=32.0 size=   38642kB time=00:18:00.47 bitrate= 293.0kbits/s dup=1 drop=0 speed=6.27x    frame=25986 fps=150 q=32.0 size=   38730kB time=00:18:03.96 bitrate= 292.7kbits/s dup=1 drop=0 speed=6.27x    frame=26088 fps=151 q=32.0 size=   38787kB time=00:18:08.23 bitrate= 292.0kbits/s dup=1 drop=0 speed=6.28x    frame=26182 fps=151 q=32.0 size=   38904kB time=00:18:12.16 bitrate= 291.8kbits/s dup=1 drop=0 speed=6.29x    frame=26280 fps=151 q=32.0 size=   38965kB time=00:18:16.21 bitrate= 291.2kbits/s dup=1 drop=0 speed=6.29x    frame=26356 fps=151 q=32.0 size=   39061kB time=00:18:19.45 bitrate= 291.0kbits/s dup=1 drop=0 speed=6.29x    frame=26428 fps=151 q=32.0 size=   39120kB time=00:18:22.40 bitrate= 290.7kbits/s dup=1 drop=0 speed=6.29x    frame=26486 fps=151 q=32.0 size=   39214kB time=00:18:24.83 bitrate= 290.8kbits/s dup=1 drop=0 speed=6.28x    frame=26546 fps=151 q=32.0 size=   39272kB time=00:18:27.35 bitrate= 290.5kbits/s dup=1 drop=0 speed=6.28x    frame=26615 fps=151 q=32.0 size=   39336kB time=00:18:30.20 bitrate= 290.3kbits/s dup=1 drop=0 speed=6.28x    frame=26686 fps=150 q=32.0 size=   39433kB time=00:18:33.19 bitrate= 290.2kbits/s dup=1 drop=0 speed=6.28x    frame=26756 fps=150 q=32.0 size=   39504kB time=00:18:36.09 bitrate= 290.0kbits/s dup=1 drop=0 speed=6.28x    frame=26842 fps=150 q=32.0 size=   39578kB time=00:18:39.68 bitrate= 289.6kbits/s dup=1 drop=0 speed=6.28x    frame=26928 fps=151 q=32.0 size=   39700kB time=00:18:43.26 bitrate= 289.5kbits/s dup=1 drop=0 speed=6.28x    frame=26977 fps=150 q=32.0 size=   39785kB time=00:18:45.31 bitrate= 289.6kbits/s dup=1 drop=0 speed=6.27x    frame=27025 fps=150 q=32.0 size=   39871kB time=00:18:47.31 bitrate= 289.7kbits/s dup=1 drop=0 speed=6.27x    frame=27076 fps=150 q=32.0 size=   39954kB time=00:18:49.45 bitrate= 289.8kbits/s dup=1 drop=0 speed=6.26x    frame=27169 fps=150 q=32.0 size=   40091kB time=00:18:53.33 bitrate= 289.8kbits/s dup=1 drop=0 speed=6.27x    frame=27281 fps=150 q=32.0 size=   40172kB time=00:18:58.02 bitrate= 289.2kbits/s dup=1 drop=0 speed=6.27x    frame=27385 fps=151 q=32.0 size=   40281kB time=00:19:02.33 bitrate= 288.9kbits/s dup=1 drop=0 speed=6.28x    frame=27448 fps=151 q=32.0 size=   40386kB time=00:19:04.98 bitrate= 289.0kbits/s dup=1 drop=0 speed=6.28x    frame=27519 fps=150 q=32.0 size=   40490kB time=00:19:07.92 bitrate= 289.0kbits/s dup=1 drop=0 speed=6.28x    frame=27604 fps=151 q=32.0 size=   40584kB time=00:19:11.46 bitrate= 288.7kbits/s dup=1 drop=0 speed=6.28x    frame=27680 fps=151 q=32.0 size=   40698kB time=00:19:14.62 bitrate= 288.8kbits/s dup=1 drop=0 speed=6.28x    frame=27762 fps=151 q=32.0 size=   40771kB time=00:19:18.08 bitrate= 288.4kbits/s dup=1 drop=0 speed=6.28x    frame=27832 fps=150 q=32.0 size=   40859kB time=00:19:20.98 bitrate= 288.3kbits/s dup=1 drop=0 speed=6.28x    frame=27916 fps=150 q=32.0 size=   40948kB time=00:19:24.48 bitrate= 288.1kbits/s dup=1 drop=0 speed=6.28x    frame=28004 fps=151 q=32.0 size=   41044kB time=00:19:28.19 bitrate= 287.8kbits/s dup=1 drop=0 speed=6.28x    frame=28070 fps=151 q=32.0 size=   41139kB time=00:19:30.92 bitrate= 287.8kbits/s dup=1 drop=0 speed=6.28x    frame=28136 fps=150 q=32.0 size=   41222kB time=00:19:33.65 bitrate= 287.7kbits/s dup=1 drop=0 speed=6.28x    frame=28205 fps=150 q=32.0 size=   41293kB time=00:19:36.55 bitrate= 287.5kbits/s dup=1 drop=0 speed=6.27x    frame=28280 fps=150 q=32.0 size=   41385kB time=00:19:39.67 bitrate= 287.4kbits/s dup=1 drop=0 speed=6.27x    frame=28368 fps=150 q=32.0 size=   41500kB time=00:19:43.33 bitrate= 287.3kbits/s dup=1 drop=0 speed=6.28x    frame=28469 fps=151 q=32.0 size=   41571kB time=00:19:47.56 bitrate= 286.8kbits/s dup=1 drop=0 speed=6.28x    frame=28523 fps=150 q=32.0 size=   41697kB time=00:19:49.82 bitrate= 287.1kbits/s dup=1 drop=0 speed=6.28x    frame=28577 fps=150 q=32.0 size=   41869kB time=00:19:52.04 bitrate= 287.7kbits/s dup=1 drop=0 speed=6.27x    frame=28643 fps=150 q=32.0 size=   41983kB time=00:19:54.81 bitrate= 287.8kbits/s dup=1 drop=0 speed=6.27x    frame=28708 fps=150 q=32.0 size=   42100kB time=00:19:57.54 bitrate= 288.0kbits/s dup=1 drop=0 speed=6.27x    frame=28769 fps=150 q=32.0 size=   42189kB time=00:20:00.06 bitrate= 288.0kbits/s dup=1 drop=0 speed=6.27x    frame=28830 fps=150 q=32.0 size=   42266kB time=00:20:02.62 bitrate= 287.9kbits/s dup=1 drop=0 speed=6.26x    frame=28897 fps=150 q=32.0 size=   42368kB time=00:20:05.39 bitrate= 287.9kbits/s dup=1 drop=0 speed=6.26x    frame=28995 fps=150 q=32.0 size=   42457kB time=00:20:09.49 bitrate= 287.6kbits/s dup=1 drop=0 speed=6.27x    frame=29100 fps=150 q=32.0 size=   42526kB time=00:20:13.84 bitrate= 287.0kbits/s dup=1 drop=0 speed=6.27x    frame=29185 fps=150 q=32.0 size=   42645kB time=00:20:17.43 bitrate= 287.0kbits/s dup=1 drop=0 speed=6.27x    frame=29289 fps=151 q=32.0 size=   42732kB time=00:20:21.73 bitrate= 286.5kbits/s dup=1 drop=0 speed=6.28x    frame=29394 fps=151 q=32.0 size=   42827kB time=00:20:26.17 bitrate= 286.1kbits/s dup=1 drop=0 speed=6.29x    frame=29498 fps=151 q=32.0 size=   42968kB time=00:20:30.48 bitrate= 286.1kbits/s dup=1 drop=0 speed=6.29x    frame=29594 fps=151 q=32.0 size=   43070kB time=00:20:34.45 bitrate= 285.8kbits/s dup=1 drop=0 speed= 6.3x    frame=29659 fps=151 q=32.0 size=   43178kB time=00:20:37.18 bitrate= 285.9kbits/s dup=1 drop=0 speed=6.29x    frame=29753 fps=151 q=32.0 size=   43296kB time=00:20:41.11 bitrate= 285.8kbits/s dup=1 drop=0 speed= 6.3x    frame=29856 fps=151 q=32.0 size=   43404kB time=00:20:45.41 bitrate= 285.5kbits/s dup=1 drop=0 speed= 6.3x    frame=29958 fps=151 q=32.0 size=   43556kB time=00:20:49.64 bitrate= 285.5kbits/s dup=1 drop=0 speed=6.31x    frame=30055 fps=151 q=32.0 size=   43677kB time=00:20:53.69 bitrate= 285.4kbits/s dup=1 drop=0 speed=6.31x    frame=30121 fps=151 q=32.0 size=   43792kB time=00:20:56.42 bitrate= 285.5kbits/s dup=1 drop=0 speed=6.31x    frame=30193 fps=151 q=32.0 size=   43934kB time=00:20:59.45 bitrate= 285.8kbits/s dup=1 drop=0 speed=6.31x    frame=30278 fps=151 q=32.0 size=   44055kB time=00:21:02.99 bitrate= 285.7kbits/s dup=1 drop=0 speed=6.31x    frame=30369 fps=151 q=32.0 size=   44190kB time=00:21:06.79 bitrate= 285.8kbits/s dup=1 drop=0 speed=6.31x    frame=30463 fps=151 q=32.0 size=   44300kB time=00:21:10.72 bitrate= 285.6kbits/s dup=1 drop=0 speed=6.32x    frame=30562 fps=152 q=32.0 size=   44404kB time=00:21:14.85 bitrate= 285.3kbits/s dup=1 drop=0 speed=6.32x    frame=30660 fps=152 q=32.0 size=   44471kB time=00:21:18.95 bitrate= 284.8kbits/s dup=1 drop=0 speed=6.33x    frame=30754 fps=152 q=32.0 size=   44541kB time=00:21:22.83 bitrate= 284.4kbits/s dup=1 drop=0 speed=6.33x    frame=30813 fps=152 q=32.0 size=   44661kB time=00:21:25.31 bitrate= 284.7kbits/s dup=1 drop=0 speed=6.33x    frame=30900 fps=152 q=32.0 size=   44755kB time=00:21:28.93 bitrate= 284.4kbits/s dup=1 drop=0 speed=6.33x    frame=30964 fps=152 q=32.0 size=   44850kB time=00:21:31.62 bitrate= 284.5kbits/s dup=1 drop=0 speed=6.33x    frame=31029 fps=152 q=32.0 size=   44979kB time=00:21:34.31 bitrate= 284.7kbits/s dup=1 drop=0 speed=6.32x    frame=31074 fps=151 q=32.0 size=   45096kB time=00:21:36.23 bitrate= 285.0kbits/s dup=1 drop=0 speed=6.32x    frame=31122 fps=151 q=32.0 size=   45216kB time=00:21:38.19 bitrate= 285.3kbits/s dup=1 drop=0 speed=6.31x    frame=31177 fps=151 q=32.0 size=   45333kB time=00:21:40.50 bitrate= 285.6kbits/s dup=1 drop=0 speed=6.31x    frame=31229 fps=151 q=32.0 size=   45437kB time=00:21:42.67 bitrate= 285.7kbits/s dup=1 drop=0 speed= 6.3x    frame=31263 fps=151 q=32.0 size=   45532kB time=00:21:44.08 bitrate= 286.0kbits/s dup=1 drop=0 speed=6.29x    frame=31313 fps=151 q=32.0 size=   45626kB time=00:21:46.17 bitrate= 286.2kbits/s dup=1 drop=0 speed=6.29x    frame=31346 fps=151 q=32.0 size=   45767kB time=00:21:47.54 bitrate= 286.7kbits/s dup=1 drop=0 speed=6.28x    frame=31372 fps=150 q=32.0 size=   45864kB time=00:21:48.60 bitrate= 287.1kbits/s dup=1 drop=0 speed=6.27x    frame=31431 fps=150 q=32.0 size=   46011kB time=00:21:51.08 bitrate= 287.5kbits/s dup=1 drop=0 speed=6.26x    frame=31481 fps=150 q=32.0 size=   46131kB time=00:21:53.17 bitrate= 287.8kbits/s dup=1 drop=0 speed=6.26x    frame=31529 fps=150 q=32.0 size=   46217kB time=00:21:55.17 bitrate= 287.9kbits/s dup=1 drop=0 speed=6.25x    frame=31557 fps=150 q=32.0 size=   46400kB time=00:21:56.33 bitrate= 288.8kbits/s dup=1 drop=0 speed=6.24x    frame=31596 fps=150 q=32.0 size=   46520kB time=00:21:57.99 bitrate= 289.1kbits/s dup=1 drop=0 speed=6.24x    frame=31642 fps=149 q=32.0 size=   46650kB time=00:21:59.91 bitrate= 289.5kbits/s dup=1 drop=0 speed=6.23x    frame=31712 fps=149 q=32.0 size=   46802kB time=00:22:02.81 bitrate= 289.8kbits/s dup=1 drop=0 speed=6.23x    frame=31779 fps=149 q=32.0 size=   46909kB time=00:22:05.59 bitrate= 289.9kbits/s dup=1 drop=0 speed=6.23x    frame=31847 fps=149 q=32.0 size=   47008kB time=00:22:08.49 bitrate= 289.9kbits/s dup=1 drop=0 speed=6.23x    frame=31900 fps=149 q=32.0 size=   47115kB time=00:22:10.66 bitrate= 290.1kbits/s dup=1 drop=0 speed=6.22x    frame=31965 fps=149 q=32.0 size=   47227kB time=00:22:13.35 bitrate= 290.2kbits/s dup=1 drop=0 speed=6.22x    frame=32010 fps=149 q=32.0 size=   47329kB time=00:22:15.23 bitrate= 290.4kbits/s dup=1 drop=0 speed=6.21x    frame=32062 fps=149 q=32.0 size=   47449kB time=00:22:17.40 bitrate= 290.6kbits/s dup=1 drop=0 speed=6.21x    frame=32129 fps=149 q=32.0 size=   47524kB time=00:22:20.22 bitrate= 290.5kbits/s dup=1 drop=0 speed=6.21x    frame=32173 fps=149 q=32.0 size=   47679kB time=00:22:22.01 bitrate= 291.0kbits/s dup=1 drop=0 speed= 6.2x    frame=32227 fps=149 q=32.0 size=   47812kB time=00:22:24.32 bitrate= 291.4kbits/s dup=1 drop=0 speed= 6.2x    frame=32290 fps=149 q=32.0 size=   47936kB time=00:22:26.92 bitrate= 291.5kbits/s dup=1 drop=0 speed= 6.2x    frame=32332 fps=148 q=32.0 size=   48065kB time=00:22:28.67 bitrate= 292.0kbits/s dup=1 drop=0 speed=6.19x    frame=32374 fps=148 q=32.0 size=   48211kB time=00:22:30.42 bitrate= 292.5kbits/s dup=1 drop=0 speed=6.18x    frame=32424 fps=148 q=32.0 size=   48340kB time=00:22:32.51 bitrate= 292.8kbits/s dup=1 drop=0 speed=6.18x    frame=32481 fps=148 q=32.0 size=   48451kB time=00:22:34.90 bitrate= 292.9kbits/s dup=1 drop=0 speed=6.17x    frame=32518 fps=148 q=29.0 size=   48576kB time=00:22:36.43 bitrate= 293.4kbits/s dup=1 drop=0 speed=6.17x    frame=32576 fps=148 q=29.0 size=   48725kB time=00:22:38.87 bitrate= 293.7kbits/s dup=1 drop=0 speed=6.16x    frame=32635 fps=148 q=32.0 size=   48861kB time=00:22:41.30 bitrate= 294.0kbits/s dup=1 drop=0 speed=6.16x    frame=32714 fps=148 q=32.0 size=   48976kB time=00:22:44.63 bitrate= 294.0kbits/s dup=1 drop=0 speed=6.16x    frame=32793 fps=148 q=32.0 size=   49086kB time=00:22:47.91 bitrate= 294.0kbits/s dup=1 drop=0 speed=6.16x    frame=32860 fps=148 q=32.0 size=   49210kB time=00:22:50.68 bitrate= 294.1kbits/s dup=1 drop=0 speed=6.16x    frame=32959 fps=148 q=32.0 size=   49311kB time=00:22:54.82 bitrate= 293.8kbits/s dup=1 drop=0 speed=6.16x    frame=33072 fps=148 q=32.0 size=   49407kB time=00:22:59.56 bitrate= 293.4kbits/s dup=1 drop=0 speed=6.17x    frame=33118 fps=148 q=32.0 size=   49537kB time=00:23:01.48 bitrate= 293.7kbits/s dup=1 drop=0 speed=6.16x    frame=33166 fps=148 q=32.0 size=   49640kB time=00:23:03.44 bitrate= 293.9kbits/s dup=1 drop=0 speed=6.16x    frame=33230 fps=148 q=32.0 size=   49770kB time=00:23:06.13 bitrate= 294.1kbits/s dup=1 drop=0 speed=6.16x    frame=33257 fps=147 q=32.0 size=   49828kB time=00:23:07.24 bitrate= 294.2kbits/s dup=1 drop=0 speed=6.15x    frame=33332 fps=147 q=32.0 size=   49989kB time=00:23:10.40 bitrate= 294.5kbits/s dup=1 drop=0 speed=6.15x    frame=33389 fps=147 q=32.0 size=   50141kB time=00:23:12.74 bitrate= 294.9kbits/s dup=1 drop=0 speed=6.15x    frame=33433 fps=147 q=32.0 size=   50236kB time=00:23:14.58 bitrate= 295.1kbits/s dup=1 drop=0 speed=6.14x    frame=33514 fps=147 q=32.0 size=   50368kB time=00:23:17.99 bitrate= 295.1kbits/s dup=1 drop=0 speed=6.14x    frame=33593 fps=147 q=32.0 size=   50507kB time=00:23:21.23 bitrate= 295.3kbits/s dup=1 drop=0 speed=6.14x    frame=33674 fps=147 q=32.0 size=   50595kB time=00:23:24.65 bitrate= 295.1kbits/s dup=1 drop=0 speed=6.14x    frame=33736 fps=147 q=32.0 size=   50734kB time=00:23:27.25 bitrate= 295.3kbits/s dup=1 drop=0 speed=6.14x    frame=33820 fps=147 q=32.0 size=   50903kB time=00:23:30.75 bitrate= 295.6kbits/s dup=1 drop=0 speed=6.14x    frame=33905 fps=147 q=32.0 size=   51062kB time=00:23:34.25 bitrate= 295.8kbits/s dup=1 drop=0 speed=6.14x    frame=33977 fps=147 q=32.0 size=   51184kB time=00:23:37.28 bitrate= 295.8kbits/s dup=1 drop=0 speed=6.14x    frame=34043 fps=147 q=32.0 size=   51375kB time=00:23:40.01 bitrate= 296.4kbits/s dup=1 drop=0 speed=6.14x    frame=34084 fps=147 q=32.0 size=   51533kB time=00:23:41.71 bitrate= 296.9kbits/s dup=1 drop=0 speed=6.14x    frame=34174 fps=147 q=32.0 size=   51720kB time=00:23:45.51 bitrate= 297.2kbits/s dup=1 drop=0 speed=6.14x    frame=34254 fps=147 q=32.0 size=   51816kB time=00:23:48.84 bitrate= 297.1kbits/s dup=1 drop=0 speed=6.14x    frame=34328 fps=147 q=32.0 size=   51914kB time=00:23:51.91 bitrate= 297.0kbits/s dup=1 drop=0 speed=6.14x    frame=34377 fps=147 q=32.0 size=   52006kB time=00:23:53.96 bitrate= 297.1kbits/s dup=1 drop=0 speed=6.13x    frame=34425 fps=147 q=32.0 size=   52101kB time=00:23:55.96 bitrate= 297.2kbits/s dup=1 drop=0 speed=6.13x    frame=34467 fps=147 q=32.0 size=   52208kB time=00:23:57.76 bitrate= 297.5kbits/s dup=1 drop=0 speed=6.12x    frame=34518 fps=147 q=32.0 size=   52346kB time=00:23:59.85 bitrate= 297.8kbits/s dup=1 drop=0 speed=6.12x    frame=34575 fps=147 q=32.0 size=   52434kB time=00:24:02.19 bitrate= 297.8kbits/s dup=1 drop=0 speed=6.11x    frame=34617 fps=146 q=32.0 size=   52522kB time=00:24:03.99 bitrate= 298.0kbits/s dup=1 drop=0 speed=6.11x    frame=34680 fps=146 q=32.0 size=   52627kB time=00:24:06.63 bitrate= 298.0kbits/s dup=1 drop=0 speed=6.11x    frame=34732 fps=146 q=32.0 size=   52761kB time=00:24:08.76 bitrate= 298.3kbits/s dup=1 drop=0 speed= 6.1x    frame=34788 fps=146 q=32.0 size=   52879kB time=00:24:11.11 bitrate= 298.5kbits/s dup=1 drop=0 speed= 6.1x    frame=34835 fps=146 q=32.0 size=   53056kB time=00:24:13.07 bitrate= 299.1kbits/s dup=1 drop=0 speed=6.09x    frame=34912 fps=146 q=32.0 size=   53154kB time=00:24:16.27 bitrate= 299.0kbits/s dup=1 drop=0 speed=6.09x    [mp4 @ 0x409d600] Starting second pass: moving the moov atom to the beginning of the file
frame=34938 fps=146 q=-1.0 Lsize=   54179kB time=00:24:17.17 bitrate= 304.6kbits/s dup=1 drop=0 speed=6.08x    
video:44050kB audio:9300kB subtitle:0kB other streams:0kB global headers:0kB muxing overhead: 1.553309%
[libx264 @ 0x410e440] frame I:338   Avg QP:21.59  size: 20166
[libx264 @ 0x410e440] frame P:11406 Avg QP:24.81  size:  2689
[libx264 @ 0x410e440] frame B:23194 Avg QP:28.54  size:   328
[libx264 @ 0x410e440] consecutive B-frames:  4.2% 12.2% 29.2% 54.4%
[libx264 @ 0x410e440] mb I  I16..4: 22.9% 50.7% 26.3%
[libx264 @ 0x410e440] mb P  I16..4:  3.6%  4.0%  1.2%  P16..4: 28.8%  4.6%  4.7%  0.2%  0.0%    skip:52.9%
[libx264 @ 0x410e440] mb B  I16..4:  0.2%  0.2%  0.1%  B16..8: 12.9%  0.8%  0.1%  direct: 0.4%  skip:85.3%  L0:40.5% L1:57.4% BI: 2.1%
[libx264 @ 0x410e440] 8x8 transform intra:46.5% inter:55.3%
[libx264 @ 0x410e440] coded y,uvDC,uvAC intra: 33.1% 54.5% 12.8% inter: 2.1% 3.9% 0.0%
[libx264 @ 0x410e440] i16 v,h,dc,p: 45% 31% 18%  6%
[libx264 @ 0x410e440] i8 v,h,dc,ddl,ddr,vr,hd,vl,hu: 24% 20% 42%  2%  2%  2%  2%  2%  3%
[libx264 @ 0x410e440] i4 v,h,dc,ddl,ddr,vr,hd,vl,hu: 30% 20% 18%  5%  5%  6%  6%  5%  5%
[libx264 @ 0x410e440] i8c dc,h,v,p: 44% 27% 23%  6%
[libx264 @ 0x410e440] Weighted P-Frames: Y:0.8% UV:0.6%
[libx264 @ 0x410e440] ref P L0: 64.5%  8.8% 11.4%  4.1%  3.2%  2.9%  2.7%  1.6%  0.7%  0.0%
[libx264 @ 0x410e440] ref B L0: 81.1%  7.6%  5.1%  1.9%  1.8%  1.4%  1.0%
[libx264 @ 0x410e440] ref B L1: 92.5%  7.5%
[libx264 @ 0x410e440] kb/s:247.63
